
  <svg width="48" height="48" viewBox="0 0 256 256" fill="none" xmlns="http://www.w3.org/2000/svg" xmlns:xlink="http://www.w3.org/1999/xlink" version="1.1"><title>Drizzle ORM</title>
    
        <g transform="translate(0, 0)">
          <svg width="256" height="256" viewBox="0 0 256 256" fill="none" xmlns="http://www.w3.org/2000/svg"><title>Drizzle ORM</title>
<rect width="256" height="256" rx="60" fill="#242938"/>
<g transform="translate(53.000, 53.000) scale(6.25000)"><path d="M5.353 11.823a1.036 1.036 0 0 0-.395-1.422 1.063 1.063 0 0 0-1.437.399L.138 16.702a1.035 1.035 0 0 0 .395 1.422 1.063 1.063 0 0 0 1.437-.398l3.383-5.903Zm11.216 0a1.036 1.036 0 0 0-.394-1.422 1.064 1.064 0 0 0-1.438.399l-3.382 5.902a1.036 1.036 0 0 0 .394 1.422c.506.283 1.15.104 1.438-.398l3.382-5.903Zm7.293-4.525a1.036 1.036 0 0 0-.395-1.422 1.062 1.062 0 0 0-1.437.399l-3.383 5.902a1.036 1.036 0 0 0 .395 1.422 1.063 1.063 0 0 0 1.437-.399l3.383-5.902Zm-11.219 0a1.035 1.035 0 0 0-.394-1.422 1.064 1.064 0 0 0-1.438.398l-3.382 5.903a1.036 1.036 0 0 0 .394 1.422c.506.282 1.15.104 1.438-.399l3.382-5.902Z" fill="#C5F74F"/></g>
</svg>

        </g>
        
  </svg>
  